<svg width="32" height="40" viewBox="0 0 32 40" fill="none" xmlns="http://www.w3.org/2000/svg">
<g clip-path="url(#clip0_110_215)">
<path d="M22.5386 0C23.081 0.241327 23.4426 0.66365 23.7439 1.1463C24.226 1.87029 24.7081 2.53394 25.1902 3.25792C25.2505 3.37858 25.4313 3.49925 25.5518 3.49925C26.9379 3.8009 27.8418 4.88688 27.9021 6.27451C27.9021 7.17949 27.9021 8.02413 27.9021 8.98944C28.2034 8.98944 28.5047 8.98944 28.8663 8.98944C29.3484 8.98944 29.7702 8.98944 30.2524 8.98944C31.2768 8.98944 31.9397 9.59276 32 10.6184C32 11.0407 32 11.463 32 11.8854C32 12.3077 31.7589 12.549 31.3974 12.6094C31.0358 12.6094 30.7947 12.368 30.7947 11.8854C30.7947 11.5234 30.7947 11.1011 30.7947 10.7391C30.7947 10.2564 30.6742 10.1357 30.1921 10.1357C28.6855 10.1357 27.1186 10.1357 25.6121 10.1357C23.4426 10.1357 21.2128 10.1357 19.0433 10.1357C18.8625 10.1357 18.742 10.1357 18.5612 10.1357C18.5612 12.3077 18.5612 14.359 18.5612 16.5309C18.6817 16.5309 18.8625 16.5309 18.9831 16.5309C22.6591 16.5309 26.3955 16.5309 30.0716 16.5309C30.7345 16.5309 30.7947 16.4706 30.7947 15.7466C30.7947 15.4449 30.7947 15.083 30.7947 14.7813C30.7947 14.359 31.0358 14.1176 31.3974 14.1176C31.7589 14.1176 32 14.359 32 14.7813C32 15.264 32 15.7466 32 16.1689C31.9397 16.9532 31.5179 17.4359 30.7947 17.6772C30.7947 17.8582 30.7947 17.9789 30.7947 18.1599C30.7947 24.8567 30.7947 31.4932 30.7947 38.19C30.7947 39.0347 30.3729 39.638 29.5895 39.8793C29.4689 39.9397 29.3484 39.9397 29.2279 39.9397C27.8418 39.9397 26.4557 39.9397 25.0697 39.9397C24.7684 39.9397 24.5273 39.819 24.467 39.5173C24.467 39.3363 24.5273 39.0347 24.7081 38.914C24.8286 38.7934 25.0094 38.7934 25.1902 38.7934C26.3955 38.7934 27.661 38.7934 28.8663 38.7934C29.4087 38.7934 29.5292 38.6727 29.5292 38.1297C29.5292 31.4329 29.5292 24.736 29.5292 18.0392C29.5292 17.9789 29.5292 17.8582 29.5292 17.7979C25.8531 17.7979 22.177 17.7979 18.5009 17.7979C18.5009 24.7964 18.5009 31.7345 18.5009 38.7934C19.1638 38.7934 19.8267 38.7934 20.4896 38.7934C21.032 38.7934 21.5744 38.7934 22.1168 38.7934C22.5989 38.7934 22.8399 38.9744 22.8399 39.3363C22.8399 39.6983 22.5989 39.9397 22.1168 39.9397C17.6573 39.9397 13.1977 39.9397 8.67797 39.9397C6.74953 39.9397 4.82109 39.9397 2.89266 39.9397C1.86817 39.9397 1.26554 39.3363 1.14501 38.3107C1.14501 38.19 1.14501 38.009 1.14501 37.8884C1.20527 31.3725 1.20527 24.7964 1.20527 18.2202C1.20527 18.0392 1.20527 17.9186 1.20527 17.7376C0.301318 17.3756 0 16.7119 0 15.8069C0.0602637 14.1176 0 12.4284 0 10.7391C0 9.65309 0.6629 8.98944 1.68738 8.98944C2.41055 8.98944 3.13371 8.98944 3.9774 8.98944C3.9774 8.08446 3.9774 7.17949 3.9774 6.27451C3.9774 5.18854 4.51977 4.34389 5.42373 3.8009C5.66478 3.68024 5.90584 3.55958 6.14689 3.49925C6.44821 3.43891 6.629 3.31825 6.80979 3.07692C7.23164 2.41327 7.71375 1.74962 8.13559 1.08597C8.43691 0.603318 8.79849 0.180995 9.34087 0C9.58192 0 9.82298 0 10.064 0C10.5461 0.180995 10.9077 0.542986 11.209 0.965309C11.6309 1.5083 12.0527 2.11161 12.4746 2.6546C13.1977 3.68024 13.9812 4.64555 14.7043 5.61086C15.6083 5.61086 16.452 5.61086 17.2957 5.61086C18.4407 4.04223 19.646 2.4736 20.791 0.965309C21.0923 0.542986 21.4539 0.180995 21.936 0C22.0565 0 22.2976 0 22.5386 0ZM2.41055 17.7979C2.41055 17.9186 2.41055 18.0392 2.41055 18.1599C2.41055 24.7964 2.41055 31.4932 2.41055 38.1297C2.41055 38.6727 2.53107 38.7934 3.07345 38.7934C6.38795 38.7934 9.76271 38.7934 13.0772 38.7934C13.1977 38.7934 13.3183 38.7934 13.4388 38.7934C13.4388 31.7949 13.4388 24.7964 13.4388 17.7979C9.76271 17.7979 6.08663 17.7979 2.41055 17.7979ZM13.4388 16.5913C13.4388 14.4193 13.4388 12.3077 13.4388 10.1961C13.3183 10.1961 13.1977 10.1961 13.0772 10.1961C9.34087 10.1961 5.54426 10.1961 1.80791 10.1961C1.26554 10.1961 1.20527 10.3167 1.20527 10.8597C1.20527 12.549 1.20527 14.178 1.20527 15.8673C1.20527 16.5309 1.26554 16.6516 1.9887 16.6516C5.66478 16.6516 9.34087 16.6516 13.0772 16.6516C13.1375 16.5913 13.258 16.5913 13.4388 16.5913ZM14.7043 17.7979C14.7043 24.7964 14.7043 31.7949 14.7043 38.7934C15.6083 38.7934 16.452 38.7934 17.2957 38.7934C17.2957 31.7949 17.2957 24.7964 17.2957 17.7979C16.3917 17.7979 15.548 17.7979 14.7043 17.7979ZM19.887 6.87783C19.887 7.60181 19.887 8.26546 19.887 8.92911C22.2373 8.92911 24.467 8.92911 26.7571 8.92911C26.7571 8.08446 26.7571 7.30015 26.7571 6.4555C26.7571 5.00754 25.5518 4.22323 24.226 4.82655C23.2015 5.3092 22.2373 5.73152 21.2128 6.21418C20.7307 6.51584 20.3089 6.69683 19.887 6.87783ZM12.0527 6.93816C11.9925 6.93816 11.9322 6.87783 11.8117 6.8175C10.4256 6.15385 9.09981 5.55053 7.71375 4.88688C7.59322 4.82655 7.41243 4.76621 7.2919 4.70588C6.38795 4.46455 5.36347 5.00754 5.24294 5.91252C5.12241 6.93816 5.24294 7.9638 5.24294 8.98944C7.47269 8.98944 9.76271 8.98944 12.0527 8.98944C12.0527 8.26546 12.0527 7.60181 12.0527 6.93816ZM17.2957 10.2564C16.3917 10.2564 15.548 10.2564 14.7043 10.2564C14.7043 12.368 14.7043 14.4796 14.7043 16.5913C15.6083 16.5913 16.452 16.5913 17.2957 16.5913C17.2957 14.4193 17.2957 12.368 17.2957 10.2564ZM13.1977 8.98944C15.0659 8.98944 16.8738 8.98944 18.742 8.98944C18.742 8.50679 18.742 8.08446 18.742 7.66214C18.6817 7.17949 18.4407 6.87783 17.8983 6.87783C16.5725 6.87783 15.307 6.87783 13.9812 6.87783C13.4991 6.87783 13.1977 7.17949 13.1375 7.66214C13.1977 8.08446 13.1977 8.50679 13.1977 8.98944ZM9.70245 1.08597C8.97929 1.93062 8.43691 2.77526 7.89454 3.61991C7.9548 3.68024 8.01507 3.68024 8.01507 3.74057C9.58192 4.46455 11.0885 5.18854 12.6554 5.85219C12.8362 5.91252 13.0772 5.85219 13.258 5.85219C12.113 4.1629 11.0282 2.59427 9.70245 1.08597ZM18.6817 5.73152C18.9228 5.97285 19.1638 5.91252 19.4049 5.79185C20.8512 5.1282 22.2976 4.46455 23.6836 3.8009C23.8041 3.74057 23.9247 3.68024 24.0452 3.61991C23.5028 2.8356 22.9605 2.05128 22.4181 1.26697C22.3578 1.20664 22.2373 1.20664 22.177 1.1463C21.8757 1.3273 19.3446 4.58522 18.6817 5.73152Z" fill="#0B0B0B"/>
</g>
<defs>
<clipPath id="clip0_110_215">
<rect width="32" height="40" fill="white"/>
</clipPath>
</defs>
</svg>
