<svg width="35" height="40" viewBox="0 0 35 40" fill="none" xmlns="http://www.w3.org/2000/svg">
<g clip-path="url(#clip0_110_220)">
<path d="M9.22051 39.9999C9.10306 39.8189 8.92688 39.8189 8.80943 39.7586C8.33963 39.5173 8.10474 39.1553 7.92856 38.6726C7.86984 38.4916 7.86984 38.3106 7.86984 38.1296C7.86984 37.8883 7.86984 37.647 7.86984 37.3453C7.69366 37.285 7.45876 37.1643 7.22386 37.104C7.04769 37.285 6.93024 37.4056 6.75407 37.5866C6.57789 37.7676 6.34299 37.8883 6.04937 37.8883C4.81615 37.8883 3.64165 37.8883 2.40843 37.8883C2.1148 37.8883 1.8799 37.7676 1.645 37.5866C1.23393 37.285 1.05776 36.8627 1.05776 36.3197C1.05776 36.018 1.05776 35.656 1.05776 35.3544C0.822857 35.3544 0.705407 35.2337 0.529233 35.113C0.411783 34.932 0.176884 34.8114 0.118159 34.6304C0.118159 34.3891 0.000709301 34.2081 0.000709301 33.9667C0.000709301 32.8808 -0.0580155 31.7948 0.000709301 30.7088C0.0594341 29.9245 0.000709303 29.2005 0.0594341 28.4162C0.118159 27.9335 0.0594341 27.3906 0.118159 26.9079C0.176884 26.4856 0.118159 26.1236 0.176884 25.7013C0.235609 25.3393 0.176884 25.0376 0.235609 24.6756C0.294333 24.374 0.235609 24.012 0.294333 23.7103C0.353058 23.4087 0.294333 23.107 0.353058 22.8657C0.411783 22.6243 0.353058 22.3227 0.411783 22.0814C0.470508 21.84 0.411783 21.5987 0.470508 21.3574C0.529233 21.116 0.470508 20.8747 0.529233 20.6334C0.587958 20.4524 0.529233 20.2111 0.587958 20.0301C0.646682 19.8491 0.587958 19.6078 0.646682 19.4268C0.705407 19.2458 0.646683 19.0648 0.705407 18.8838C0.764132 18.7028 0.764132 18.5218 0.764132 18.3408C1.05776 18.0995 1.11648 17.7978 1.17521 17.4358C1.23393 17.0738 1.23393 16.7118 1.35138 16.4102C1.41011 16.2292 1.35138 16.0482 1.41011 15.8672C1.46883 15.6862 1.41011 15.4449 1.52755 15.3242C1.645 15.1432 1.52755 14.9622 1.645 14.7812C1.58628 14.4192 1.76245 14.1779 1.82118 13.8159C1.8799 13.4539 2.05608 13.1522 2.05608 12.7903C2.17353 12.6093 2.17353 12.3679 2.23225 12.1869C2.29098 12.0663 2.3497 11.8853 2.40843 11.7043C2.52588 11.282 2.64333 10.8596 2.8195 10.4976C2.93695 10.196 2.99568 9.834 3.17185 9.53234C3.46547 9.04968 3.7591 8.5067 4.17017 8.08437C4.58125 7.66205 4.99232 7.30006 5.46212 6.9984C5.87319 6.75707 6.22554 6.57608 6.63662 6.39508C6.75407 6.33475 6.87151 6.27442 6.93024 6.21409C7.57621 5.91243 8.16346 5.61077 8.80943 5.30911C8.80943 5.18845 8.80943 5.12811 8.80943 5.00745C8.75071 4.58513 8.92688 4.22314 8.98561 3.80081C9.04433 3.55949 9.10306 3.31816 9.22051 3.07683C9.33796 2.65451 9.57286 2.29252 9.86648 1.93053C10.1601 1.5082 10.5125 1.26688 10.9235 1.02555C11.2172 0.844553 11.5695 0.784222 11.9219 0.663558C12.2742 0.603226 12.5678 0.542894 12.9202 0.422231C13.0963 0.361899 13.2725 0.361899 13.4487 0.301567C13.6249 0.241235 13.8598 0.241235 14.0359 0.180903C14.3883 0.120571 14.7406 0.0602396 15.093 -9.22084e-05C15.3866 -0.060424 15.6802 -9.22084e-05 15.9151 -0.060424C16.796 -0.24142 17.6182 -0.120756 18.499 -0.120756C18.6752 -0.120756 18.9101 -0.060424 19.0863 -0.060424C19.2625 -0.060424 19.4974 -0.060424 19.6735 -0.060424C19.791 -0.060424 19.9084 -9.22084e-05 20.0259 -9.22084e-05C20.1433 -9.22084e-05 20.2608 -0.060424 20.3782 0.0602396C20.4957 0.120571 20.6131 0.0602396 20.7306 0.120571C20.848 0.120571 20.9067 0.180903 21.0242 0.180903C21.1416 0.180903 21.2004 0.180903 21.3178 0.241235C21.494 0.301567 21.6702 0.301567 21.8463 0.301567C22.551 0.422231 23.197 0.603226 23.843 0.844553C24.0779 0.904885 24.2541 1.02555 24.4302 1.14621C25.0762 1.80986 25.4873 2.41318 25.7809 3.19749C25.8984 3.61982 26.0158 4.04214 26.1333 4.46446C26.1333 4.5248 26.1333 4.58513 26.1333 4.64546C26.1333 4.88679 26.1333 5.06778 26.1333 5.30911C26.6031 5.55044 27.0729 5.79176 27.6014 6.03309C28.1886 6.27442 28.7759 6.51575 29.3044 6.87774C29.7155 7.11906 30.1265 7.36039 30.4789 7.72238C30.8312 8.08437 31.1836 8.44636 31.4185 8.86869C31.7121 9.35134 31.947 9.834 32.1232 10.377C32.2406 10.739 32.3581 11.101 32.4755 11.463C32.593 11.7646 32.6517 12.0663 32.7692 12.4283C32.7692 12.4886 32.7692 12.6093 32.7104 12.6696C32.6517 12.7299 32.6517 12.8506 32.593 12.9109C32.4755 12.9713 32.3581 13.0316 32.1819 13.0919C32.0645 13.0316 32.0057 13.0316 31.8296 12.9713C31.7708 12.9109 31.7121 12.7903 31.5947 12.6696C31.3598 11.7043 31.0661 10.6786 30.5963 9.653C30.4789 9.95466 30.3614 10.2563 30.244 10.558C30.0678 11.0406 29.8916 11.5233 29.8329 12.0059C29.7742 12.3679 29.598 12.7299 29.5393 13.1522C29.5393 13.3332 29.4219 13.5746 29.3631 13.8159C29.3044 14.0572 29.2457 14.3589 29.187 14.6002C29.0695 14.9622 29.1282 15.3845 28.9521 15.6862C28.9521 15.6862 28.9521 15.6862 28.9521 15.7465C28.9521 16.0482 28.8933 16.4102 28.8933 16.7118C28.8933 16.8928 28.8346 17.1341 28.8346 17.3151C28.8346 17.4961 28.8933 17.7375 28.8346 17.9185C28.7172 18.3408 28.7759 18.8234 28.7759 19.2458C28.7759 24.1326 28.7759 29.0195 28.7759 33.9064C28.7759 34.0271 28.7759 34.1477 28.7759 34.2684C30.4202 34.2684 32.0057 34.2684 33.65 34.2684C33.65 34.2081 33.7088 34.1477 33.7088 34.0874C33.7088 34.0271 33.7088 33.9064 33.7088 33.7857C33.7088 32.2774 33.7088 30.7088 33.7088 29.2005C33.7088 28.8989 33.5913 28.5972 33.65 28.2955C33.65 27.9939 33.7088 27.6922 33.65 27.3906C33.5326 26.9682 33.65 26.5459 33.5913 26.1236C33.5326 25.7013 33.5913 25.3393 33.5326 24.917C33.4739 24.6153 33.5326 24.3136 33.4739 24.012C33.4151 23.7103 33.4739 23.4087 33.4151 23.107C33.3564 22.8657 33.4151 22.564 33.3564 22.3227C33.239 22.021 33.3564 21.7194 33.239 21.4177V21.3574C33.239 21.1764 33.239 20.9351 33.1802 20.7541C33.1215 20.5731 33.239 20.3921 33.1215 20.2111V20.1507C33.1215 19.9697 33.1215 19.7887 33.0628 19.6078C33.0041 19.4268 33.0628 19.2458 33.0041 19.0648C32.9453 18.8234 32.9453 18.5218 32.8866 18.2201C32.8866 18.0995 32.8279 17.9788 32.8279 17.8581C32.8279 17.7375 32.8279 17.6771 32.7692 17.5565C32.7104 17.3755 32.7104 17.1945 32.7104 17.0135C32.6517 16.7722 32.6517 16.5308 32.593 16.2895C32.5343 16.0482 32.5343 15.8068 32.4755 15.5655C32.4168 15.3242 32.4755 15.1432 32.4168 14.9622C32.5343 14.8415 32.6517 14.7209 32.7692 14.6002C32.8279 14.6002 32.8866 14.6002 32.9453 14.6002C33.1802 14.6002 33.4739 14.7812 33.5326 15.0225C33.5913 15.2639 33.65 15.5655 33.7088 15.8068C33.7088 16.0482 33.8262 16.2292 33.7675 16.4705C33.9437 16.6515 33.7675 16.8928 33.9437 17.0738C33.9437 17.4961 34.1198 17.8581 34.1198 18.2805C34.1198 18.4011 34.1786 18.5218 34.1786 18.7028C34.1786 18.8234 34.1786 18.9441 34.2373 19.0648C34.1786 19.3061 34.3547 19.6078 34.296 19.8491C34.296 20.0301 34.3547 20.1507 34.3547 20.3317C34.3547 20.4524 34.296 20.6334 34.4135 20.7541V20.8144C34.4135 21.1764 34.4722 21.5384 34.4722 21.9004C34.4722 22.0814 34.5896 22.202 34.5309 22.4433C34.5309 22.6243 34.4722 22.8053 34.5896 22.9863C34.5896 22.9863 34.5896 22.9863 34.5896 23.0467C34.5309 23.4087 34.7071 23.7706 34.6484 24.1326C34.6484 24.374 34.7071 24.6153 34.7071 24.8566C34.7071 25.0979 34.6484 25.3393 34.7071 25.5806C34.8245 25.9426 34.7071 26.3046 34.7658 26.6666C34.8245 27.1492 34.7658 27.6922 34.8245 28.1749C34.8833 28.7179 34.8833 29.2608 34.8833 29.8038C34.8833 30.4675 35.0007 31.1311 34.942 31.8551C34.942 32.5188 34.942 33.1824 34.942 33.9064C34.942 34.5097 34.7071 34.9924 34.2373 35.3544C34.1198 35.4147 34.0024 35.475 33.8849 35.5354C33.8849 35.837 33.8849 36.199 33.8849 36.561C33.8849 37.1643 33.4151 37.828 32.8279 38.009C32.7104 38.009 32.593 38.0693 32.4755 38.0693C31.301 38.0693 30.1265 38.0693 28.9521 38.0693C28.6584 38.0693 28.3648 37.9486 28.1299 37.7073C28.0125 37.5263 27.7776 37.4056 27.7188 37.2246C27.4839 37.1643 27.3078 37.466 27.0729 37.466C27.0729 37.7676 27.0729 38.0693 27.0729 38.3106C27.0729 38.6123 26.9554 38.9139 26.838 39.2156C26.6618 39.5173 26.4856 39.6983 26.1333 39.8792C26.0158 39.9396 25.8396 39.9396 25.7222 40.1206C20.2608 39.9999 14.7406 39.9999 9.22051 39.9999ZM7.34131 31.0105C7.34131 32.2774 7.34131 33.4841 7.34131 34.6907C7.34131 35.0527 7.28259 35.3544 7.45876 35.7164C7.57621 35.837 7.69366 35.9577 7.81111 36.0783C8.10474 36.2593 8.45708 36.199 8.75071 36.199C14.6232 36.199 20.5544 36.199 26.4269 36.199C26.4856 36.199 26.6031 36.199 26.6618 36.199C26.9554 36.199 27.249 35.9577 27.4839 35.7767C27.6601 35.5354 27.7776 35.2337 27.7776 34.932C27.7776 29.4418 27.7776 23.9516 27.7776 18.4614C27.7776 18.1598 27.7776 17.8581 27.8363 17.5565C27.895 17.2548 27.8363 16.8928 27.895 16.5308C27.9537 16.3498 27.895 16.1688 27.9537 15.9275C28.0125 15.7465 27.9537 15.5052 28.0125 15.3242C28.0712 15.0225 28.1299 14.7209 28.1886 14.3589C28.2474 13.8762 28.3648 13.3936 28.4823 12.9109C28.541 12.6696 28.5997 12.3679 28.6584 12.0663C28.7172 11.7646 28.8933 11.5233 28.8933 11.2216C29.1282 10.6786 29.187 10.1357 29.4806 9.59267C29.4806 9.29101 29.7155 9.11001 29.7155 8.80836C29.7155 8.74802 29.7742 8.62736 29.8329 8.56703C29.7742 8.56703 29.7155 8.56703 29.6567 8.5067C29.3631 8.20504 28.9521 7.96371 28.541 7.78271C28.3648 7.72238 28.1886 7.66205 28.0712 7.60172C27.3665 7.23973 26.6618 6.93807 25.9571 6.57608C25.8396 6.51575 25.7809 6.45541 25.6635 6.45541C25.4286 6.75707 25.1937 6.93807 24.9 7.05873C24.5477 7.1794 24.2541 7.36039 23.9017 7.48106C23.6081 7.60172 23.3732 7.72238 23.1383 7.78271C22.4923 8.02404 21.8463 8.3257 21.2004 8.56703C20.848 8.74802 20.437 8.86869 20.0846 9.04968C20.0259 9.11001 19.9084 9.04968 19.791 9.17035C19.791 9.23068 19.791 9.35134 19.791 9.41167C19.791 10.558 19.791 11.644 19.791 12.7903C19.791 12.9713 19.7323 13.1522 19.6148 13.2729C19.5561 13.3332 19.4974 13.3936 19.4386 13.4539C19.4386 13.4539 19.4386 13.4539 19.4386 13.3936C19.3799 13.4539 19.2625 13.4539 19.2625 13.4539C19.145 13.4539 19.0276 13.4539 18.9688 13.3936C18.7927 13.2729 18.6752 13.0919 18.6752 12.8506C18.6752 11.8249 18.6752 10.8596 18.6752 9.834C18.6752 9.77366 18.6752 9.653 18.6752 9.59267C18.2641 9.653 17.9705 9.77367 17.6182 9.77367C17.2658 9.77367 16.9135 9.653 16.5611 9.59267C16.5611 11.644 16.5611 13.6952 16.5611 15.6862C16.4437 15.8068 16.3262 15.9275 16.2088 16.0482C15.8564 16.1085 15.5628 15.9878 15.3866 15.5655C15.3866 13.4539 15.3866 11.282 15.3866 9.11001C15.2692 9.11001 15.2104 9.04968 15.093 9.04968C14.5645 8.74802 14.0359 8.62736 13.5074 8.38603C13.2138 8.26537 12.9202 8.14471 12.6265 8.02404C12.3329 7.90338 12.0393 7.78271 11.8044 7.66205C11.5108 7.54139 11.2172 7.42072 10.9235 7.30006C10.395 7.05873 9.86648 6.93807 9.51413 6.39508C9.45541 6.45541 9.39668 6.45541 9.33796 6.51575C8.69198 6.81741 7.98729 7.11906 7.34131 7.48106C7.22386 7.54139 7.16514 7.60172 7.04769 7.66205C6.69534 7.78271 6.40172 7.96371 6.04937 8.14471C5.81447 8.3257 5.57957 8.44636 5.34467 8.62736C5.34467 8.68769 5.34467 8.74802 5.34467 8.74802C5.57957 9.23068 5.75574 9.77367 5.93192 10.3167C6.04937 10.6786 6.16682 10.9803 6.28427 11.3423C6.40172 11.7646 6.51917 12.2473 6.63662 12.6696C6.75407 13.0919 6.87151 13.5746 6.93024 13.9969C6.93024 14.1779 6.93024 14.3589 6.98896 14.4795C7.04769 14.6002 7.04769 14.7209 7.04769 14.8415C7.04769 14.9622 7.10641 15.0829 7.10641 15.2639C7.10641 15.3845 7.16514 15.5052 7.16514 15.6259C7.16514 15.8672 7.16514 16.0482 7.22386 16.2895C7.28259 16.5308 7.22386 16.7118 7.28259 16.9532C7.34131 17.1341 7.28259 17.3151 7.28259 17.5565C7.28259 17.7375 7.34131 17.9788 7.34131 18.1598C7.34131 21.7194 7.34131 25.2789 7.34131 28.7782C7.22386 29.2608 6.87151 29.2005 6.51917 29.2005C6.34299 29.0195 6.16682 28.8385 6.16682 28.5369C6.16682 27.6319 6.16682 26.6666 6.16682 25.7616C6.16682 24.8566 6.16682 23.8913 6.16682 22.9863C6.16682 22.021 6.16682 21.116 6.16682 20.1507C6.16682 19.2458 6.10809 18.3408 6.10809 17.4358C6.10809 17.3151 6.16682 17.1945 6.10809 17.1341C5.99064 16.9532 6.04937 16.8325 6.04937 16.6515C6.04937 16.4705 5.99064 16.2895 5.99064 16.1085C5.93192 15.8672 5.99064 15.5655 5.87319 15.3242C5.81447 15.1432 5.87319 14.9622 5.81447 14.7812C5.69702 14.4795 5.63829 14.1779 5.63829 13.8762C5.57957 13.5746 5.46212 13.3332 5.46212 13.0316C5.28594 12.5489 5.22722 12.0059 4.99232 11.5233C4.9336 10.92 4.58125 10.377 4.40507 9.71333C4.2289 9.95466 4.11145 10.196 4.05272 10.4373C3.93527 10.739 3.87655 10.9803 3.7591 11.282C3.70037 11.463 3.64165 11.7043 3.5242 12.0059C3.46547 12.2473 3.34802 12.5489 3.2893 12.7903C3.23058 13.2729 2.99568 13.7556 2.99568 14.2986C2.76078 14.8415 2.76078 15.3845 2.64333 15.9275C2.52588 16.3498 2.46715 16.8325 2.40843 17.2548C2.40843 17.3755 2.29098 17.5565 2.29098 17.6771C2.29098 17.8581 2.23225 17.9788 2.23225 18.1598C2.17353 18.5218 2.17353 18.8234 2.05608 19.1854C1.99735 19.3664 2.05608 19.6078 1.99735 19.7887C1.93863 19.9697 1.99735 20.1507 1.93863 20.3921C1.8799 20.5731 1.93863 20.8144 1.8799 20.9954C1.82118 21.1764 1.82118 21.4177 1.82118 21.5987C1.76245 21.84 1.82118 22.1417 1.76245 22.383C1.70373 22.6243 1.76245 22.926 1.70373 23.1673C1.645 23.469 1.70373 23.7706 1.645 24.012C1.58628 24.3136 1.645 24.6153 1.58628 24.8566C1.52755 25.2186 1.58628 25.5806 1.52755 25.9426C1.46883 26.3649 1.58628 26.7872 1.41011 27.2096C1.41011 28.1145 1.35138 29.0195 1.35138 29.9245C1.35138 31.3121 1.35138 32.6998 1.35138 34.0271C1.41011 34.0874 1.41011 34.1477 1.46883 34.1477C3.11313 34.1477 4.6987 34.1477 6.34299 34.1477C6.34299 33.0618 6.34299 31.9758 6.34299 30.8898C6.46044 30.7691 6.57789 30.6485 6.69534 30.5278C6.87151 30.5278 6.98896 30.5278 7.16514 30.5278C7.10641 30.7691 7.22386 30.8898 7.34131 31.0105ZM13.1551 4.10247C13.2725 4.10247 13.4487 4.04214 13.5661 4.04214C13.9772 4.04214 14.3883 4.04214 14.7994 4.04214C15.2104 4.04214 15.5628 3.92148 15.9739 3.98181C16.5024 3.98181 16.9722 3.98181 17.5007 3.98181C17.8531 3.98181 18.1467 3.98181 18.499 3.98181C18.8514 3.98181 19.145 3.98181 19.4974 3.98181C19.8497 3.98181 20.1433 4.10247 20.4957 4.04214C20.848 3.98181 21.1416 4.04214 21.494 4.04214C21.5527 4.04214 21.6114 4.04214 21.6702 4.10247C21.7876 4.1628 21.9051 4.1628 21.9638 4.1628C22.4923 3.49915 22.9621 2.89584 23.3732 2.17185C22.9034 2.11152 22.4336 1.80986 21.9638 1.87019C21.5527 1.6892 21.0829 1.6892 20.6719 1.56854C20.4957 1.5082 20.2608 1.56854 20.0846 1.5082C19.9084 1.44787 19.7323 1.5082 19.4974 1.44787C19.2625 1.38754 19.0276 1.44787 18.7927 1.44787C18.5578 1.44787 18.3816 1.32721 18.1467 1.38754C17.8531 1.38754 17.6182 1.38754 17.3245 1.38754C17.0309 1.38754 16.796 1.38754 16.5024 1.44787C16.2675 1.5082 15.9739 1.44787 15.6802 1.44787C15.6215 1.44787 15.5628 1.44787 15.5628 1.44787C15.4453 1.56854 15.2692 1.5082 15.1517 1.5082C15.0343 1.5082 14.8581 1.56854 14.7406 1.56854C14.5057 1.62887 14.2121 1.56854 14.0359 1.6892C13.7423 1.80986 13.4487 1.80986 13.1551 1.93053C12.6265 1.80986 12.1567 1.93053 11.7457 2.05119C12.1567 2.77517 12.6265 3.37849 13.1551 4.10247ZM9.16178 38.6123C9.45541 38.8536 9.74903 38.8536 10.0427 38.8536C15.2104 38.8536 20.3782 38.8536 25.546 38.8536L25.6047 38.7933C25.8396 38.6726 25.9571 38.4916 26.0158 38.2503C26.0745 38.009 26.0158 37.7073 26.0158 37.466C20.7306 37.4056 9.27923 37.466 8.98561 37.5263C8.98561 37.828 8.98561 38.0693 8.98561 38.371C9.04433 38.4313 9.10306 38.4916 9.16178 38.6123ZM20.9655 5.18845C20.1433 5.12811 19.3799 5.24878 18.6165 5.12811C18.2054 5.06778 17.7356 5.12811 17.2658 5.12811C16.8547 5.12811 16.3849 5.06778 15.9739 5.18845C15.739 5.24878 15.5041 5.18845 15.2692 5.18845C14.8581 5.18845 14.5057 5.18845 14.0947 5.18845C14.5057 5.61077 14.7994 6.03309 15.2104 6.39508C15.5628 6.75707 15.9739 7.1794 16.3849 7.54139C16.7373 7.90338 17.1484 8.26537 17.5594 8.56703C18.2054 8.02404 18.7339 7.48106 19.3212 6.93807C19.8497 6.39508 20.3195 5.73143 20.9655 5.18845ZM14.5645 7.48106C13.1551 6.03309 11.8631 4.46446 10.7474 2.71484C10.6299 2.95617 10.4537 3.19749 10.3363 3.43882C10.2188 3.74048 10.1601 4.10247 10.0427 4.40413C10.0427 4.5248 9.98393 4.64546 9.98393 4.76612C9.92521 5.00745 10.0427 5.18845 10.1601 5.42977C10.2188 5.6711 10.395 5.79176 10.5712 5.8521C11.041 6.09342 11.5108 6.27442 12.0393 6.45541C12.744 6.69674 13.4487 6.9984 14.1534 7.30006C14.2708 7.42072 14.447 7.42072 14.5645 7.48106ZM20.437 7.48106C20.6719 7.42072 20.848 7.30006 21.0829 7.23973C21.3765 7.11906 21.6702 6.9984 21.9638 6.87774C22.3749 6.75707 22.7859 6.57608 23.197 6.39508C23.5494 6.27442 23.843 6.09342 24.1953 5.97276C24.6064 5.8521 24.9588 5.55044 25.0175 5.06778C25.0175 4.88679 25.0762 4.76612 25.0175 4.64546C24.9588 4.40413 24.9 4.22314 24.8413 3.98181C24.7239 3.49915 24.5477 3.07683 24.2541 2.71484C23.1383 4.46446 21.8463 6.03309 20.437 7.48106ZM6.16682 36.6213C6.16682 36.2593 6.16682 35.837 6.16682 35.475C4.87487 35.475 3.58292 35.475 2.3497 35.475C2.29098 35.5354 2.29098 35.5354 2.23225 35.5957C2.29098 35.9577 2.1148 36.38 2.3497 36.742C2.46715 36.742 2.5846 36.8023 2.76078 36.8023C3.87655 36.8023 4.9336 36.8023 6.04937 36.8023C6.04937 36.742 6.10809 36.6213 6.16682 36.6213ZM32.6517 35.475C31.3598 35.475 30.0678 35.475 28.8346 35.475C28.8346 35.837 28.8346 36.2593 28.8346 36.561C28.8933 36.6817 28.9521 36.742 29.0108 36.8023C30.1265 36.8023 31.1836 36.8023 32.2406 36.8023C32.4168 36.8023 32.593 36.8023 32.7104 36.6817C32.8866 36.3197 32.7692 35.9577 32.7692 35.5957C32.7104 35.5354 32.7104 35.5354 32.6517 35.475Z" fill="#0B0B0B"/>
<path d="M26.1326 33.5443C26.0738 33.6649 26.0151 33.7253 26.0151 33.7856C25.9564 34.0872 25.6628 34.2682 25.4866 34.5096C25.3691 34.6302 25.193 34.6906 25.0168 34.6906C24.7819 34.7509 24.4883 34.7509 24.2534 34.7509C19.7315 34.7509 15.2097 34.7509 10.6879 34.7509C10.5117 34.7509 10.3943 34.7509 10.2181 34.6906C10.1007 34.6302 9.9245 34.6906 9.74832 34.6302C9.6896 34.5699 9.57215 34.5699 9.51342 34.5699C9.33725 34.3889 9.10235 34.2079 8.92617 33.9063C8.80872 33.6649 8.75 33.4236 8.75 33.1823C8.75 31.7946 8.75 30.3467 8.75 28.959C8.75 28.5367 8.86745 28.2351 9.16107 27.9334C9.33725 27.6921 9.57215 27.5111 9.86577 27.3904C9.9245 27.3904 9.9245 27.3301 9.98322 27.2698C10.1594 27.0888 10.3356 26.9078 10.5117 26.7871C10.8054 26.5458 10.9815 26.1838 11.2752 25.8821C11.6862 25.4598 11.9211 24.9168 12.2148 24.4342C12.3909 24.1928 12.6846 24.0118 12.9195 23.8912C13.0369 23.8308 13.2131 23.7705 13.3893 23.7705C16.0906 23.7705 18.7332 23.7705 21.4346 23.7705C21.8456 23.7705 22.198 24.0118 22.4916 24.2532C22.5503 24.3135 22.6091 24.4342 22.6678 24.4945C22.7852 24.7358 22.9027 24.9168 23.0201 25.1581C23.1376 25.3391 23.1963 25.4598 23.3138 25.6408C23.4312 25.8218 23.6074 26.0028 23.7836 26.1838C23.901 26.3044 24.0185 26.4854 24.1359 26.6061C24.547 26.9078 24.8406 27.3301 25.3104 27.6317C25.604 27.8127 25.8977 28.2954 26.0151 28.6574C26.0151 28.7177 26.0151 28.778 26.0151 28.8987C26.1325 30.407 26.1326 31.9756 26.1326 33.5443ZM13.448 24.9168C13.3305 24.9771 13.2131 25.0375 13.2131 25.0978C13.1544 25.2788 13.0369 25.3391 12.9782 25.5201C12.6258 26.1838 12.2148 26.7268 11.745 27.2698C11.3339 27.7524 10.8641 28.1747 10.3356 28.5367C10.1594 28.6574 10.1007 28.7177 10.0419 28.8987C10.0419 30.2863 10.0419 31.6136 10.0419 33.0013C10.0419 33.1823 10.1007 33.3633 10.2181 33.4839C15.0923 33.4839 20.0252 33.4839 24.8993 33.4839C25.0755 33.3633 25.0755 33.1823 25.0755 32.9409C25.0755 32.5186 25.0755 32.0963 25.0755 31.674C25.0755 30.769 25.0755 29.9244 25.0755 29.0194C25.0755 28.778 25.0168 28.6574 24.7819 28.5367C24.4883 28.3557 24.1946 28.1144 23.9597 27.8731C23.6074 27.5111 23.1963 27.0888 22.844 26.6664C22.4916 26.2441 22.198 25.7615 21.9631 25.2788C21.8456 25.0375 21.6695 24.9168 21.3758 24.9168C18.6745 24.9168 16.0906 24.9168 13.448 24.9168Z" fill="#0B0B0B"/>
</g>
<defs>
<clipPath id="clip0_110_220">
<rect width="35" height="40" fill="white"/>
</clipPath>
</defs>
</svg>
