<svg width="37" height="40" viewBox="0 0 37 40" fill="none" xmlns="http://www.w3.org/2000/svg">
<g clip-path="url(#clip0_110_224)">
<path d="M7.09709 40.0002C6.55119 39.7589 6.36922 39.3366 6.36922 38.7333C6.36922 32.8811 6.36922 26.9685 6.36922 21.1164C6.36922 20.9354 6.36922 20.8147 6.36922 20.6337C4.48889 19.5477 2.60856 18.4618 0.728237 17.4361C-0.060288 17.0138 -0.1816 16.5915 0.182335 15.7468C1.94135 12.2476 3.70037 8.80867 5.45938 5.30942C5.64135 4.94743 5.94463 4.64577 6.24791 4.40445C8.37086 3.07715 10.4938 1.74985 12.5561 0.422546C13.4659 -0.120441 14.3151 -0.180772 15.2856 0.301882C16.1348 0.784537 17.0446 1.0862 18.0758 1.20686C19.4102 1.38785 20.6233 1.14653 21.7151 0.482878C22.8069 -0.120441 23.7774 -0.120441 24.8086 0.543209C26.8102 1.81018 28.8118 3.07715 30.8135 4.40445C31.1168 4.58544 31.42 4.94743 31.602 5.24909C33.361 8.68801 35.0594 12.1873 36.8184 15.6865C37.243 16.4708 37.061 16.8931 36.3332 17.3758C34.4528 18.4618 32.5725 19.4874 30.6315 20.6337C30.6315 20.7544 30.6315 20.9354 30.6315 21.056C30.6315 24.0726 30.6315 27.0289 30.6315 30.0455C30.6315 30.1661 30.6315 30.2868 30.6315 30.4075C30.5709 30.7091 30.3282 30.8901 30.025 30.8901C29.7217 30.8901 29.5397 30.7091 29.4791 30.4075C29.4791 30.2868 29.4791 30.1661 29.4791 30.0455C29.4791 24.5553 29.4791 19.0651 29.4791 13.5749C29.4791 13.5146 29.4791 13.4542 29.4791 13.3939C29.4791 12.9716 29.7217 12.6699 30.0856 12.6699C30.4495 12.6699 30.6315 12.9716 30.6922 13.3939C30.6922 13.5749 30.6922 13.7559 30.6922 13.9369C30.6922 15.5658 30.6922 17.1345 30.6922 18.7634C30.6922 18.8841 30.6922 19.0651 30.6922 19.2461C32.4512 18.2204 34.1495 17.3155 35.8479 16.3501C35.6053 15.8675 35.3627 15.3848 35.12 14.9022C33.6036 11.8856 32.1479 8.92933 30.6315 5.91274C30.5102 5.73175 30.3282 5.49042 30.1463 5.36975C28.6299 4.40445 27.1741 3.43914 25.6577 2.47383C25.5971 2.59449 25.5971 2.65482 25.5364 2.77549C24.4446 6.03341 21.2905 8.08469 17.8332 7.7227C16.8627 7.60203 15.9528 7.3607 15.1036 6.87805C14.6791 6.63672 14.5577 6.33506 14.7397 6.03341C14.9217 5.73175 15.225 5.67141 15.6495 5.85241C18.0151 6.99871 20.1987 6.81772 22.3217 5.24909C23.4741 4.40445 24.202 3.19781 24.5053 1.74985C24.202 1.56885 23.9594 1.38785 23.6561 1.20686C23.3528 2.77549 22.625 3.98212 21.3512 4.82677C20.3807 5.43009 19.2889 5.73175 18.1364 5.61108C16.3168 5.43009 14.0725 4.22345 13.5266 1.26719C13.4053 1.32752 13.2233 1.44819 13.102 1.50852C12.9807 1.56885 12.8594 1.68951 12.6168 1.81018C12.7987 2.29283 12.92 2.77549 13.1627 3.19781C13.3446 3.62013 13.6479 3.98212 13.8905 4.34411C14.0725 4.64577 14.0725 5.00776 13.8299 5.18876C13.5873 5.36976 13.1627 5.36975 12.9807 5.0681C12.5561 4.34411 12.1315 3.5598 11.7069 2.77549C11.525 2.77549 11.525 2.71516 11.4643 2.59449C11.343 2.65482 11.2217 2.71515 11.1004 2.77549C9.70529 3.62013 8.3102 4.52511 6.91512 5.43009C6.73315 5.55075 6.61184 5.67141 6.55119 5.85241C4.79217 9.29132 3.09381 12.7906 1.39545 16.2295C1.39545 16.2898 1.39545 16.2898 1.33479 16.4105C3.03315 17.3758 4.67086 18.3411 6.49053 19.3064C6.49053 19.1254 6.49053 18.9444 6.49053 18.8238C6.49053 17.0741 6.49053 15.2642 6.49053 13.5146C6.49053 13.3336 6.49053 13.1526 6.55119 13.0922C6.73315 12.9112 6.97578 12.7302 7.15774 12.7906C7.33971 12.7906 7.52168 13.0319 7.64299 13.2129C7.70365 13.3336 7.70365 13.5749 7.70365 13.7559C7.70365 21.9007 7.70365 30.1058 7.70365 38.2506C7.70365 38.4316 7.70365 38.6126 7.70365 38.7936C14.9823 38.7936 22.2004 38.7936 29.4791 38.7936C29.4791 38.6126 29.4791 38.4919 29.4791 38.3109C29.4791 36.5613 29.4791 34.8117 29.4791 33.0621C29.4791 32.9414 29.4791 32.7604 29.4791 32.6397C29.5397 32.3381 29.7217 32.1571 30.025 32.1571C30.3889 32.1571 30.5709 32.3381 30.6315 32.6397C30.6315 32.7604 30.6315 32.8811 30.6315 33.0017C30.6315 34.9323 30.6315 36.863 30.6315 38.7936C30.6315 39.3366 30.4495 39.7589 29.9036 40.0002C22.261 40.0002 14.6791 40.0002 7.09709 40.0002ZM14.6791 1.38785C14.861 3.07715 16.6807 4.52511 18.5004 4.52511C20.2594 4.52511 22.0791 3.07715 22.2004 1.62918C19.6528 3.01681 17.1659 2.65482 14.6791 1.38785Z" fill="#0B0B0B"/>
</g>
<defs>
<clipPath id="clip0_110_224">
<rect width="37" height="40" fill="white"/>
</clipPath>
</defs>
</svg>
