<svg width="38" height="40" viewBox="0 0 38 40" fill="none" xmlns="http://www.w3.org/2000/svg">
<g clip-path="url(#clip0_110_217)">
<path d="M8.14367 40V39.9397C7.77354 39.8793 7.4651 39.6983 7.15666 39.457C6.84821 39.1554 6.60146 38.8537 6.47808 38.4314C6.4164 38.3107 6.4164 38.1297 6.4164 38.009C6.4164 33.1222 6.4164 28.2353 6.4164 23.3484C6.10795 23.2278 5.73782 23.1071 5.42938 22.9864C4.68912 22.7451 3.88718 22.5038 3.14692 22.2624C2.65341 22.0814 2.1599 21.9608 1.6664 21.7798C1.17289 21.5988 0.80276 21.2971 0.556006 20.9351C0.124188 20.3922 0.0625 19.7888 0.0625 19.1252C0.0625 19.0045 0.124188 18.8235 0.185877 18.7632C0.309253 18.4615 0.370942 18.0995 0.494318 17.7979C0.556006 17.4962 0.741071 17.1946 0.741071 16.8326C0.987825 16.4103 1.04951 15.8673 1.17289 15.4449C1.29627 15.0226 1.41964 14.6003 1.54302 14.1176C1.60471 13.816 1.72808 13.5747 1.78977 13.273C1.91315 12.911 1.97484 12.6094 2.09821 12.2474C2.1599 11.9457 2.28328 11.644 2.34497 11.2821C2.46834 10.8597 2.59172 10.4374 2.7151 10.0151C2.83847 9.17044 3.08523 8.44646 3.45536 7.7828C3.51705 7.66214 3.64042 7.54148 3.70211 7.42081C4.25731 6.75716 4.87419 6.21418 5.67614 5.91252C6.10795 5.73152 6.60146 5.61086 7.09497 5.4902C7.28003 5.4902 7.40341 5.42986 7.52679 5.42986C8.14367 5.24887 8.82224 5.06787 9.43912 4.88688C9.87094 4.76621 10.2411 4.64555 10.6729 4.52489C10.7346 4.52489 10.7346 4.46455 10.7963 4.46455C10.9196 4.22323 10.9196 3.86124 11.043 3.55958C11.1664 3.31825 11.2898 3.07692 11.4748 2.8356C11.7216 2.53394 11.9683 2.23228 12.2151 1.87029C12.5235 1.44796 12.7703 1.02564 13.2021 0.723982C13.5722 0.422323 13.9424 0.241327 14.3742 0.120664C14.6826 0 14.9294 0 15.1761 0C17.8287 0 20.4196 0 23.0722 0C23.7508 0 24.3677 0.301659 24.8612 0.723982C25.2313 1.02564 25.4781 1.44796 25.7865 1.87029C26.0333 2.23228 26.3417 2.59427 26.6502 3.01659C26.8352 3.31825 27.082 3.68024 27.0203 4.04223C27.0203 4.1629 27.082 4.28356 27.1437 4.40422C27.5138 4.52489 27.8839 4.64555 28.3157 4.76621C28.5008 4.82655 28.6242 4.88688 28.7476 4.94721C29.3028 5.1282 29.9196 5.3092 30.4748 5.4902C30.9683 5.61086 31.4619 5.79185 31.9554 5.91252C32.5722 6.09351 33.1891 6.39517 33.6826 6.87783C33.9294 7.11915 34.1761 7.36048 34.3612 7.60181C34.6696 7.9638 34.8547 8.44646 35.0398 8.86878C35.1015 8.98944 35.1015 9.17044 35.1632 9.23077C35.2865 9.35143 35.2248 9.4721 35.2865 9.59276C35.4099 9.77376 35.0398 10.1961 34.793 10.2564C34.7313 10.2564 34.608 10.2564 34.4846 10.2564C34.4229 10.1961 34.2995 10.1357 34.1761 10.0151C34.1144 9.77376 33.9911 9.41176 33.8677 9.11011C33.7443 8.80845 33.6209 8.50679 33.3742 8.26546C33.1274 7.90347 32.819 7.66214 32.5106 7.42081C32.2021 7.23982 31.8937 7.05882 31.5235 6.99849C30.9067 6.8175 30.2281 6.6365 29.6112 6.4555C28.9326 6.21418 28.2541 6.09351 27.6372 5.85219C27.3904 5.85219 27.1437 5.67119 26.9586 5.67119C26.7735 5.91252 26.6502 6.15385 26.4651 6.33484C26.0333 6.87783 25.6015 7.36048 25.1696 7.90347C24.9846 8.20513 24.7378 8.44646 24.5528 8.74811C24.2443 9.17044 23.7508 9.4721 23.1956 9.53243C22.8255 9.59276 22.4554 9.59276 22.0852 9.41176C21.8385 9.2911 21.5917 9.23077 21.345 9.17044C21.2833 9.17044 21.2216 9.17044 21.1599 9.17044C21.1599 9.2911 21.1599 9.4721 21.1599 9.59276C21.1599 10.9201 21.1599 12.3077 21.1599 13.635C21.1599 14.2986 20.6664 14.7813 19.9878 14.7813C19.3709 14.7813 18.8157 14.7813 18.1989 14.7813C17.7054 14.7813 17.0268 14.359 17.0268 13.635C17.0268 12.1267 17.0268 10.6787 17.0268 9.17044C16.8417 9.17044 16.7183 9.23077 16.595 9.23077C16.3482 9.35143 16.1631 9.41176 15.9164 9.4721C15.5463 9.59276 14.9911 9.59276 14.6826 9.4721C14.4359 9.35143 14.1891 9.23077 14.0041 9.11011C13.7573 8.92911 13.6339 8.68778 13.4489 8.50679C13.3255 8.32579 13.2021 8.1448 13.0787 7.9638C12.7086 7.48115 12.2768 7.05882 11.9683 6.57617C11.9067 6.4555 11.7833 6.39517 11.7216 6.27451C11.5982 6.09351 11.4748 5.91252 11.3515 5.73152C11.2898 5.73152 11.2281 5.79185 11.1047 5.79185C10.4878 5.97285 9.87094 6.15385 9.31575 6.33484C9.06899 6.39517 8.76055 6.51584 8.5138 6.57617C8.26705 6.6365 8.02029 6.75716 7.71185 6.8175C7.34172 6.87783 7.03328 6.99849 6.66315 7.11915C6.29302 7.17949 5.98458 7.42081 5.61445 7.60181C4.93588 8.02413 4.50406 8.68778 4.31899 9.41176C4.13393 9.95475 4.01055 10.5581 3.82549 11.1011C3.7638 11.4027 3.64042 11.7044 3.57873 12.006C3.51705 12.3077 3.39367 12.549 3.33198 12.8507C3.27029 13.1523 3.14692 13.454 3.08523 13.6953C2.96185 14.1176 2.83847 14.54 2.7151 14.9623C2.65341 15.2036 2.53003 15.4449 2.46834 15.6863C2.34497 16.0483 2.22159 16.4103 2.1599 16.7722C2.03653 17.1342 1.97484 17.4962 1.85146 17.9186C1.85146 17.9789 1.85146 17.9789 1.85146 18.0392C3.39367 18.5219 4.93588 19.0649 6.47808 19.5475C6.53977 19.5475 6.60146 19.5475 6.66315 19.5475C6.66315 18.8235 6.66315 18.0995 6.66315 17.4359C6.78653 16.8929 6.78653 16.8929 7.40341 17.1342C7.4651 17.2549 7.52679 17.3756 7.58847 17.4962C7.58847 23.7104 7.58847 29.9849 7.58847 36.2594C7.58847 36.2594 7.58847 36.2594 7.65016 36.2594C8.39042 36.2594 9.13068 36.2594 9.80925 36.2594C9.93263 36.3801 10.056 36.5008 10.1794 36.6214C10.1794 36.7421 10.1794 36.9231 10.1794 37.0437C10.056 37.1644 9.93263 37.2851 9.80925 37.4057C9.06899 37.4057 8.32873 37.4057 7.58847 37.4057C7.52679 37.7677 7.58847 38.1297 7.89692 38.4314C8.08198 38.6124 8.32873 38.6727 8.57549 38.733C8.63717 38.733 8.69886 38.733 8.76055 38.733C15.608 38.733 22.4554 38.733 29.3028 38.733C29.6112 38.733 29.858 38.6727 30.1047 38.4917C30.3515 38.3107 30.4748 38.0694 30.4131 37.7074C30.4131 37.6471 30.4131 37.5264 30.4131 37.4057C30.2898 37.4057 30.1664 37.4057 30.043 37.4057C24.2443 37.4057 18.3839 37.4057 12.5852 37.4057C12.4002 37.4057 12.1534 37.4057 12.03 37.2247C11.845 37.0437 11.845 36.8627 11.9067 36.5611C11.9683 36.3801 12.1534 36.1991 12.4002 36.1991C12.4619 36.1991 12.5852 36.1991 12.6469 36.1991C18.4456 36.1991 24.2443 36.1991 29.9813 36.1991C30.1047 36.1991 30.2281 36.1991 30.4131 36.1991C30.4131 36.0784 30.4131 35.9578 30.4131 35.8371C30.4131 29.8643 30.4131 23.8311 30.4131 17.8582C30.4131 17.5566 30.3515 17.2549 30.6599 17.0136C31.2151 16.7722 31.2151 16.7722 31.6469 17.1946C31.6469 17.9186 31.6469 18.5822 31.6469 19.3062C31.832 19.3665 32.017 19.3062 32.2021 19.2459C33.3125 18.8235 34.4846 18.4615 35.6567 18.0995C35.9034 18.0392 36.2118 17.9186 36.5203 17.7979C36.4586 17.7376 36.4586 17.6772 36.3969 17.5566C36.2735 17.1342 36.2118 16.7119 36.0885 16.2896C36.0268 15.9879 35.9651 15.7466 35.8417 15.4449C35.78 15.2036 35.6567 14.9623 35.6567 14.7813C35.595 14.54 35.5333 14.359 35.4716 14.1176C35.4099 13.816 35.2865 13.5747 35.2248 13.273C35.1015 12.8507 34.9164 12.4284 34.9164 11.9457C35.0398 11.7044 35.0398 11.7044 35.5333 11.5234C35.595 11.5234 35.6567 11.5837 35.6567 11.5837C35.9651 11.5837 36.0268 11.7647 36.0885 12.006C36.2118 12.2474 36.2735 12.549 36.3352 12.7903C36.3969 13.092 36.5203 13.454 36.582 13.7557C36.6437 13.997 36.7054 14.2383 36.8287 14.4193C36.8904 14.6003 36.8904 14.902 37.0138 15.083C37.1372 15.3846 37.1989 15.6863 37.2606 15.9276C37.3839 16.2293 37.4456 16.5913 37.569 16.8929C37.6307 17.1946 37.7541 17.5566 37.8774 17.8582C38.0008 18.3409 38.2476 18.8235 38.1859 19.3665C38.1242 19.9095 37.9391 20.3922 37.569 20.8145C37.1372 21.2971 36.5203 21.5385 35.9034 21.7195C34.9781 22.0211 34.0528 22.3228 33.1891 22.6244C32.7573 22.7451 32.2638 22.9261 31.832 23.1071C31.832 23.2278 31.832 23.4087 31.832 23.5294C31.832 28.2956 31.832 33.0015 31.832 37.7677C31.832 38.3107 31.6469 38.733 31.2768 39.095C31.03 39.3363 30.845 39.5173 30.5365 39.638C30.4131 39.6983 30.2898 39.7587 30.1664 39.7587L30.1047 39.819C22.6404 40 15.3612 40 8.14367 40ZM14.4976 1.26697C14.4976 1.74962 14.4976 2.17195 14.4976 2.6546C17.5203 2.6546 20.543 2.6546 23.5657 2.6546C23.5657 2.17195 23.5657 1.74962 23.5657 1.26697C23.0722 1.08597 22.517 1.1463 22.0235 1.1463C20.2346 1.1463 18.3839 1.1463 16.595 1.1463C15.8547 1.20664 15.1761 1.08597 14.4976 1.26697ZM13.2638 2.41327C13.2021 2.53394 13.1404 2.6546 13.0787 2.71493C12.832 3.01659 12.5852 3.31825 12.4002 3.61991C12.2151 3.92157 12.1534 4.52489 12.2151 4.88688C12.2768 5.18854 12.4619 5.36953 12.6469 5.55053C12.9554 5.97285 13.3872 6.39517 13.6956 6.8175C13.819 6.99849 14.0041 7.11915 14.1274 7.36048C14.2508 7.60181 14.4976 7.84314 14.6826 8.02413C14.9294 8.20513 15.2378 8.38612 15.608 8.20513C16.0398 8.02413 16.4716 7.9638 16.9034 7.7828C17.2118 7.66214 17.5203 7.54148 17.8904 7.42081C17.7054 7.30015 17.582 7.17949 17.3969 7.05882C17.0885 6.75716 16.78 6.4555 16.4716 6.21418C16.0398 5.85219 15.608 5.42986 15.1144 5.06787C14.7443 4.76621 14.3742 4.40422 14.0657 4.10256C13.5106 3.74057 13.3255 3.19759 13.2638 2.41327ZM24.7378 2.41327C24.7995 2.77526 24.7378 3.01659 24.6761 3.25792C24.5528 3.61991 24.3677 3.92157 24.0593 4.1629C23.6891 4.46455 23.319 4.82655 23.0106 5.1282C22.8255 5.18854 22.7021 5.42986 22.517 5.55053C22.332 5.67119 22.1469 5.79185 22.0235 5.97285C21.5917 6.33484 21.1599 6.75716 20.7281 7.11915L20.6664 7.17949C20.6047 7.23982 20.543 7.23982 20.4813 7.30015C20.4196 7.36048 20.358 7.42081 20.2963 7.48115C20.4196 7.54148 20.4813 7.60181 20.543 7.60181C21.0365 7.72247 21.4683 7.90347 21.9618 8.02413C22.332 8.1448 22.7021 8.32579 23.0106 8.26546C23.3807 8.1448 23.5657 7.9638 23.7508 7.7828C23.8125 7.66214 23.8742 7.60181 23.9976 7.48115C24.2443 7.17949 24.4911 6.87783 24.7378 6.57617C24.9846 6.27451 25.2313 5.91252 25.4781 5.61086C25.6631 5.36953 25.9099 5.1282 25.9716 4.82655C25.9716 4.64555 26.0333 4.46455 26.0333 4.28356C26.0333 3.9819 25.9716 3.74057 25.7865 3.49925C25.6015 3.25792 25.4781 3.01659 25.3547 2.8356C25.0463 2.77526 24.9229 2.6546 24.7378 2.41327ZM19.0008 6.99849C19.1242 6.87783 19.3093 6.8175 19.3709 6.69683C19.8644 6.21418 20.358 5.79185 20.9132 5.36953C21.345 5.00754 21.7768 4.58522 22.2086 4.22323C22.332 4.10256 22.4554 4.04223 22.5787 3.92157C20.9131 3.86124 15.8547 3.86124 15.4846 3.92157C15.608 3.9819 15.7313 4.04223 15.793 4.1629C16.2248 4.52489 16.595 4.88688 17.0268 5.24887L17.0885 5.3092C17.3352 5.42986 17.4586 5.61086 17.6437 5.79185C17.8287 5.97285 18.0138 6.09351 18.1989 6.27451C18.4456 6.51584 18.7541 6.75716 19.0008 6.99849ZM19.8644 13.5747C19.8644 11.9457 19.8644 10.3167 19.8644 8.68778C19.6177 8.62745 19.3709 8.56712 19.1859 8.50679C19.0625 8.44646 18.9391 8.44646 18.8157 8.50679C18.569 8.62745 18.3222 8.62745 18.1372 8.74811C18.1372 10.3771 18.1372 12.006 18.1372 13.635C18.7541 13.5747 19.3093 13.5747 19.8644 13.5747ZM36.7054 19.0649C36.582 19.1252 36.4586 19.1855 36.3352 19.1855C35.8417 19.3665 35.2865 19.5475 34.793 19.6682C33.8677 19.9698 32.9424 20.2715 32.017 20.5732C31.8937 20.6335 31.7086 20.6938 31.5852 20.7541C31.5852 21.1765 31.5852 21.5988 31.5852 22.0211C31.9554 21.9005 32.2638 21.7195 32.6339 21.6591C33.5593 21.3575 34.4846 21.0558 35.4099 20.7541C35.78 20.6335 36.1502 20.5128 36.4586 20.2112C36.6437 19.9698 36.8287 19.4872 36.767 19.1855C36.767 19.1252 36.767 19.1252 36.7054 19.0649ZM1.23458 19.1855C1.23458 19.3665 1.23458 19.5475 1.29627 19.7285C1.35795 20.2112 1.72808 20.4525 2.09821 20.6335C2.46834 20.8145 2.96185 20.8748 3.33198 21.0558C4.19562 21.3575 4.99756 21.5988 5.8612 21.9005C6.04627 21.9608 6.23133 22.0814 6.4164 21.9608C6.4164 21.5988 6.4164 21.1765 6.4164 20.8145C4.75081 20.2715 3.02354 19.7285 1.35795 19.1252C1.29627 19.1252 1.23458 19.1252 1.23458 19.1855Z" fill="#0B0B0B"/>
</g>
<defs>
<clipPath id="clip0_110_217">
<rect width="38" height="40" fill="white"/>
</clipPath>
</defs>
</svg>
